<?xml version="1.0" encoding="iso-8859-1"?>
<!-- Generator: Adobe Illustrator 19.0.0, SVG Export Plug-In . SVG Version: 6.00 Build 0)  -->
<svg version="1.1" id="Layer_1" xmlns="http://www.w3.org/2000/svg" xmlns:xlink="http://www.w3.org/1999/xlink" x="0px" y="0px"
	 viewBox="0 0 507.6 507.6" style="enable-background:new 0 0 507.6 507.6;" xml:space="preserve">
<path style="fill:#FFC52F;" d="M349.2,155.55c-9.2,9.2-9.2,24.8,0,34l27.6,27.6h-246l28-28c9.2-9.2,9.2-24.4,0-33.6l-16.8-16.8
	c-9.2-9.2-24.4-9.2-33.6,0l-97.6,97.2c-4.8,4.8-6.8,10.8-6.8,16.8s2.4,12.4,6.8,16.8l97.2,97.2c9.2,9.2,24.4,9.2,33.6,0l16.8-16.8
	c9.2-9.2,9.2-23.6,0-33.2l-28.8-28.4h247.6v0.8l-28,27.6c-9.2,9.2-9.2,24.4,0,33.6l16.8,16.4c9.2,9.2,24.4,9.2,33.6,0l97.6-97.6
	c4.8-4.8,6.8-10.8,6.8-16.8s-2.4-12.4-6.8-16.8l-97.2-97.2c-9.2-9.2-24.4-9.2-33.6,0L349.2,155.55z"/>
<path style="fill:#F0C960;" d="M118,157.15c4-4,10.8-4,14.8,0l7.6,7.6c4,4,4,10.4,0,14.8L84,235.95l-0.8,1.2h341.6l-0.4-0.8
	l-56-56.4c-4-4-4-10.8,0-14.8l7.6-7.6c4-4,10.8-4,14.8,0l88,88c2,2,3.2,4.8,2.8,7.6c0,2.8-0.8,5.6-2.8,7.6l-88.4,88
	c-4,4-10.8,4-14.8,0l-7.6-7.6c-4-4-4-10.4,0-14.8l56.4-56.4l0.8-0.4v-0.8H82l2,1.6l56.4,56c4,4,4,10.4,0,14.4l-7.6,7.6
	c-4,4-10.8,4-14.8,0l-11.2-11.2l-20-20l-56.8-56.8c-2-2-3.2-4.8-2.8-7.6c0-2.8,0.8-5.6,2.8-7.6L118,157.15z"/>
<path d="M382.8,378.75c-7.2,0-14.4-2.8-19.6-8l-16.8-16.4c-5.2-5.2-8-12-8-19.2s2.8-14,8-19.2l20.4-18.4H140l21.2,19.6
	c10.8,10.8,10.8,26,0,36.8l-16.8,16.8c-10.8,10.8-28.4,10.8-39.2,0L8,273.55c-5.2-5.2-8-12.4-8-19.6c0-7.6,2.8-14.4,8-19.6
	l97.6-97.2c5.2-5.2,12.4-8,19.6-8c7.6,0,14.4,3.2,19.6,8.4l16.8,17.2c10.8,10.8,10.8,29.6,0,40.4l-21.6,23.2h227.6l-21.2-23.2
	c-10.8-10.8-10.8-30.4,0-41.6l0,0l16.8-16.8c5.2-5.2,12.4-8,19.6-8l0,0c7.6,0,14.4,2.8,19.6,8l97.2,97.2c5.2,5.2,8,12.4,8,19.6
	c0,7.6-2.8,14.4-8,19.6l-97.6,97.6C397.2,375.55,390.4,378.75,382.8,378.75L382.8,378.75z M129.6,289.15h247.6
	c1.6,0,3.2,1.2,3.6,2.4c0.4,1.6,0,3.2-1.2,4.4l-28,25.2c-3.6,3.6-5.6,8.4-5.6,13.6s2,10,5.6,13.6l16.8,16.4c3.6,3.6,8.8,5.6,14,5.6
	s10.4-2,14-6l97.6-97.6c3.6-3.6,5.6-8.8,5.6-14s-2-10.4-5.6-14l-97.2-97.2c-3.6-3.6-8.8-5.6-14-5.6l0,0c-5.2,0-10.4,2-14,5.6
	l-16.8,16.8c-7.6,7.6-7.6,22.4,0,30.4l27.6,30c1.2,1.2,1.2,2.8,0.8,4.4s-2,2.4-3.6,2.4h-246c-1.6,0-3.2-0.8-3.6-2.4
	c-0.8-1.6-0.4-3.2,0.8-4.4l28-30c8-8,8-21.6,0-29.2l-16.8-17.2c-3.6-3.6-8.8-6-14-6c-5.6-0.4-10.4,2-14,5.6l-97.6,97.2
	c-3.6,3.6-5.6,8.8-5.6,14s2,10.4,5.6,14l97.2,97.2c7.6,7.6,20.4,7.6,28,0l16.8-16.8c7.6-7.6,7.6-17.6,0-25.2l-28.8-26.4
	c-1.2-1.2-1.6-2.8-1.2-4.4C126.4,290.35,128,289.15,129.6,289.15z"/>
<path d="M424.8,245.15H83.2c-1.2,0-2.4-0.4-3.2-1.6c-0.8-0.8-1.2-2.4-0.8-3.6l0.8-3.2c0-0.8,0.4-1.2,1.2-2l56.4-57.2
	c1.2-1.2,2-2.8,2-4.8s-0.8-3.6-2-4.8l-7.6-8c-1.2-1.2-2.8-2-4.4-2c-1.6,0-3.2,0.8-4.4,1.6l-3.2,2.8c-1.6,1.6-4,1.6-5.6,0
	s-1.6-4,0-5.6l2.8-2.8c2.8-2.8,6.4-4,10-4c4,0,7.2,1.6,10,4.4l7.6,8c2.8,2.8,4,6.4,4,10.4s-1.6,7.6-4,10.4l-52.4,53.6h327.2
	l-52.4-54.4c-2.8-2.8-4-6.4-4-10c0-4,1.6-7.6,4-10l7.6-7.6c5.6-5.6,14.8-5.6,20.4,0c1.6,1.6,1.6,4,0,5.6s-4,1.6-5.6,0
	c-2.4-2.4-6.4-2.4-8.8,0l-7.6,7.6c-1.2,1.2-2,2.8-2,4.4s0.8,3.2,2,4.4l56.4,58.4c0.4,0.4,0.8,1.2,1.2,2l0.4,2.8
	c0.4,1.2,0,2.4-0.8,3.2C426.8,244.75,426,245.15,424.8,245.15z"/>
<path d="M382.8,355.95c-3.6,0-7.2-1.2-10-4l-7.6-7.6c-5.6-5.6-5.6-14.4,0-20l49.2-48.8L94,276.35l49.2,46.8c5.6,5.6,5.6,14.8,0,20.4
	l-7.6,7.6c-5.2,5.2-14.8,5.6-20.4,0l-88-88c-2.8-2.8-4.4-6.4-4-10.4c0-4,1.6-7.6,4-10.4l66.8-66.8c1.6-1.6,4-1.6,5.6,0s1.6,4,0,5.6
	l-66.8,66.8c-1.2,1.2-2,2.8-2,4.8s0.8,3.6,2,4.8l88,88c2.4,2.4,6.4,2.4,8.8,0l7.6-7.6c2.4-2.4,2.4-6.4,0-8.8l-56-53.6
	c-1.2-1.2-1.6-2.8-0.8-4.4s2-2.4,3.6-2.4l340.4-1.2l0,0c1.6,0,3.2,0.8,3.6,2.4c0.8,1.6,0.4,3.2-0.8,4.4l-56.4,55.6
	c-2.4,2.4-2.4,6,0,8.8l7.6,7.6c2.4,2.4,6.4,2.4,9.2,0l88-88.4c1.2-1.2,2-2.8,2-4.8s-0.8-3.6-2-4.8l-65.6-65.6c-1.6-1.6-1.6-4,0-5.6
	s4-1.6,5.6,0l65.6,65.6c2.8,2.8,4.4,6.4,4,10.4c0,3.6-1.6,7.6-4,10.4l-88,88.4C390,354.75,386.4,355.95,382.8,355.95z"/>
<g>
</g>
<g>
</g>
<g>
</g>
<g>
</g>
<g>
</g>
<g>
</g>
<g>
</g>
<g>
</g>
<g>
</g>
<g>
</g>
<g>
</g>
<g>
</g>
<g>
</g>
<g>
</g>
<g>
</g>
</svg>
